<svg width="645" height="438" viewBox="0 0 645 438" fill="none" xmlns="http://www.w3.org/2000/svg">
<rect x="6.16901" y="6.16901" width="632.662" height="425.662" rx="17.493" fill="#F9FBFC" stroke="url(#paint0_linear_2087_10498)" stroke-width="11.662"/>
<g clip-path="url(#clip0_2087_10498)">
<path opacity="0.5" d="M60.5757 82.5098V90.0639" stroke="#0C8389" stroke-width="1.65248" stroke-linecap="round" stroke-linejoin="round"/>
<path opacity="0.5" d="M55.5713 85.0303V90.0632" stroke="#0C8389" stroke-width="1.65248" stroke-linecap="round" stroke-linejoin="round"/>
<path opacity="0.5" d="M45.4673 87.2305V90.0633" stroke="#0C8389" stroke-width="1.65248" stroke-linecap="round" stroke-linejoin="round"/>
<path opacity="0.5" d="M50.4716 84.0205V90.0638" stroke="#0C8389" stroke-width="1.65248" stroke-linecap="round" stroke-linejoin="round"/>
<path d="M56.7418 79.2125C57.3872 79.8578 57.3872 80.9041 56.7418 81.5495C56.0965 82.1948 55.0502 82.1948 54.4049 81.5495C53.7596 80.9041 53.7596 79.8578 54.4049 79.2125C55.0502 78.5672 56.0965 78.5672 56.7418 79.2125" stroke="#0C8389" stroke-width="1.65248" stroke-linecap="round" stroke-linejoin="round"/>
<path d="M61.8434 74.9606C62.4887 75.6059 62.4887 76.6522 61.8434 77.2975C61.1981 77.9428 60.1518 77.9428 59.5065 77.2975C58.8611 76.6522 58.8611 75.6059 59.5065 74.9606C60.1518 74.3152 61.1981 74.3152 61.8434 74.9606" stroke="#0C8389" stroke-width="1.65248" stroke-linecap="round" stroke-linejoin="round"/>
<path d="M46.5368 80.0572C47.1821 80.7026 47.1821 81.7489 46.5368 82.3942C45.8914 83.0395 44.8451 83.0395 44.1998 82.3942C43.5545 81.7489 43.5545 80.7026 44.1998 80.0572C44.8452 79.4119 45.8914 79.4119 46.5368 80.0572" stroke="#0C8389" stroke-width="1.65248" stroke-linecap="round" stroke-linejoin="round"/>
<path d="M51.6393 75.8053C52.2846 76.4506 52.2846 77.4969 51.6393 78.1422C50.994 78.7876 49.9477 78.7876 49.3024 78.1422C48.657 77.4969 48.657 76.4506 49.3024 75.8053C49.9477 75.16 50.994 75.16 51.6393 75.8053" stroke="#0C8389" stroke-width="1.65248" stroke-linecap="round" stroke-linejoin="round"/>
<path d="M59.4143 77.1836L56.8364 79.3271" stroke="#0C8389" stroke-width="1.65248" stroke-linecap="round" stroke-linejoin="round"/>
<path d="M54.1925 79.4695L51.8413 77.8926" stroke="#0C8389" stroke-width="1.65248" stroke-linecap="round" stroke-linejoin="round"/>
<path d="M46.6387 80.1767L49.2071 78.0332" stroke="#0C8389" stroke-width="1.65248" stroke-linecap="round" stroke-linejoin="round"/>
<path d="M83.2989 76.6134C84.9306 76.6134 86.235 76.9861 87.212 77.7314C88.1991 78.4667 88.6926 79.8214 88.6926 81.7955C88.6926 83.7294 88.2092 85.0942 87.2422 85.8899C86.2854 86.6755 85.0566 87.0684 83.5558 87.0684H80.5643V76.6134H83.2989ZM82.7853 78.2451V85.4367H83.6918C84.5479 85.4367 85.2076 85.1748 85.671 84.651C86.1444 84.1172 86.381 83.1654 86.381 81.7955C86.381 80.8488 86.2602 80.1135 86.0184 79.5897C85.7868 79.066 85.4745 78.7134 85.0817 78.5321C84.6889 78.3408 84.2105 78.2451 83.6464 78.2451H82.7853ZM96.3167 84.8474C96.3167 85.1597 96.362 85.3913 96.4527 85.5424C96.5433 85.6834 96.6944 85.7892 96.9059 85.8597L96.4527 87.2799C95.9793 87.2396 95.5915 87.1288 95.2893 86.9475C94.9972 86.7662 94.7706 86.4842 94.6094 86.1014C94.0857 86.9072 93.2849 87.3101 92.2072 87.3101C91.4115 87.3101 90.7769 87.0835 90.3036 86.6302C89.8402 86.1669 89.6086 85.5676 89.6086 84.8323C89.6086 83.956 89.9258 83.2862 90.5604 82.8229C91.1949 82.3596 92.1065 82.1279 93.295 82.1279H94.2166V81.7351C94.2166 81.2416 94.1058 80.8991 93.8842 80.7077C93.6626 80.5164 93.295 80.4207 92.7813 80.4207C92.2173 80.4207 91.5122 80.5617 90.6662 80.8437L90.1827 79.4084C91.1798 79.0156 92.1669 78.8192 93.1439 78.8192C94.2317 78.8192 95.0325 79.0559 95.5462 79.5293C96.0598 79.9926 96.3167 80.6876 96.3167 81.6142V84.8474ZM92.7964 85.769C93.4008 85.769 93.8742 85.4719 94.2166 84.8776V83.3517H93.5065C92.3482 83.3517 91.7691 83.7848 91.7691 84.651C91.7691 85.0036 91.8547 85.2805 92.0259 85.482C92.2072 85.6734 92.464 85.769 92.7964 85.769ZM100.972 78.8192C102.1 78.8192 103.067 79.1415 103.873 79.7861L103.057 81.0099C102.382 80.5869 101.717 80.3754 101.062 80.3754C100.71 80.3754 100.438 80.4408 100.246 80.5718C100.055 80.7027 99.9594 80.879 99.9594 81.1006C99.9594 81.2617 99.9997 81.3977 100.08 81.5085C100.171 81.6193 100.332 81.725 100.564 81.8258C100.806 81.9265 101.163 82.0474 101.636 82.1884C102.483 82.42 103.112 82.7323 103.525 83.1251C103.938 83.5078 104.144 84.0366 104.144 84.7115C104.144 85.2453 103.988 85.7086 103.676 86.1014C103.374 86.4942 102.961 86.7964 102.437 87.0079C101.913 87.2094 101.329 87.3101 100.685 87.3101C100.01 87.3101 99.3954 87.2094 98.8414 87.0079C98.2875 86.7964 97.8141 86.5094 97.4212 86.1468L98.4788 84.9683C99.1537 85.4921 99.8688 85.7539 100.624 85.7539C101.027 85.7539 101.344 85.6784 101.576 85.5273C101.818 85.3662 101.939 85.1496 101.939 84.8776C101.939 84.6661 101.893 84.4999 101.803 84.3791C101.712 84.2582 101.546 84.1474 101.304 84.0467C101.062 83.9359 100.685 83.81 100.171 83.669C99.3652 83.4474 98.7659 83.1352 98.3731 82.7323C97.9903 82.3193 97.7989 81.8107 97.7989 81.2063C97.7989 80.7531 97.9299 80.3451 98.1918 79.9825C98.4536 79.6199 98.8213 79.3379 99.2947 79.1365C99.7781 78.925 100.337 78.8192 100.972 78.8192ZM110.014 78.8192C110.709 78.8192 111.253 79.0358 111.646 79.4689C112.049 79.8919 112.25 80.4811 112.25 81.2365V87.0684H110.105V81.5991C110.105 81.166 110.029 80.8639 109.878 80.6926C109.727 80.5113 109.511 80.4207 109.229 80.4207C108.665 80.4207 108.151 80.7883 107.688 81.5236V87.0684H105.542V75.8731L107.688 75.6464V79.9674C108.01 79.5847 108.357 79.2976 108.73 79.1063C109.113 78.9149 109.541 78.8192 110.014 78.8192ZM118.628 78.8192C119.564 78.8192 120.289 79.1919 120.803 79.9372C121.327 80.6826 121.589 81.725 121.589 83.0646C121.589 83.8906 121.458 84.6258 121.196 85.2705C120.944 85.905 120.577 86.4036 120.093 86.7662C119.62 87.1288 119.061 87.3101 118.416 87.3101C117.54 87.3101 116.84 86.9676 116.316 86.2827L116.195 87.0684H114.291V75.8731L116.437 75.6313V79.9221C116.689 79.5797 117.006 79.3127 117.389 79.1214C117.771 78.9199 118.184 78.8192 118.628 78.8192ZM117.812 85.7237C118.839 85.7237 119.353 84.8374 119.353 83.0646C119.353 82.0876 119.227 81.4027 118.975 81.0099C118.733 80.607 118.381 80.4056 117.917 80.4056C117.343 80.4056 116.85 80.748 116.437 81.4329V84.8625C116.789 85.4367 117.248 85.7237 117.812 85.7237ZM126.661 78.8192C127.859 78.8192 128.796 79.1969 129.471 79.9523C130.146 80.6977 130.483 81.7351 130.483 83.0646C130.483 83.9107 130.327 84.6561 130.015 85.3007C129.713 85.9352 129.269 86.4288 128.685 86.7813C128.111 87.1338 127.431 87.3101 126.646 87.3101C125.447 87.3101 124.505 86.9374 123.82 86.1921C123.146 85.4367 122.808 84.3942 122.808 83.0646C122.808 82.2186 122.959 81.4783 123.261 80.8437C123.574 80.1991 124.017 79.7005 124.591 79.348C125.175 78.9955 125.865 78.8192 126.661 78.8192ZM126.661 80.4207C126.117 80.4207 125.709 80.6372 125.437 81.0703C125.175 81.4934 125.044 82.1581 125.044 83.0646C125.044 83.9711 125.175 84.641 125.437 85.0741C125.709 85.4971 126.112 85.7086 126.646 85.7086C127.179 85.7086 127.577 85.4971 127.839 85.0741C128.111 84.641 128.247 83.9711 128.247 83.0646C128.247 82.1581 128.116 81.4934 127.854 81.0703C127.592 80.6372 127.195 80.4207 126.661 80.4207ZM138.086 84.8474C138.086 85.1597 138.131 85.3913 138.222 85.5424C138.313 85.6834 138.464 85.7892 138.675 85.8597L138.222 87.2799C137.749 87.2396 137.361 87.1288 137.059 86.9475C136.766 86.7662 136.54 86.4842 136.379 86.1014C135.855 86.9072 135.054 87.3101 133.976 87.3101C133.181 87.3101 132.546 87.0835 132.073 86.6302C131.61 86.1669 131.378 85.5676 131.378 84.8323C131.378 83.956 131.695 83.2862 132.33 82.8229C132.964 82.3596 133.876 82.1279 135.064 82.1279H135.986V81.7351C135.986 81.2416 135.875 80.8991 135.654 80.7077C135.432 80.5164 135.064 80.4207 134.551 80.4207C133.987 80.4207 133.281 80.5617 132.435 80.8437L131.952 79.4084C132.949 79.0156 133.936 78.8192 134.913 78.8192C136.001 78.8192 136.802 79.0559 137.315 79.5293C137.829 79.9926 138.086 80.6876 138.086 81.6142V84.8474ZM134.566 85.769C135.17 85.769 135.643 85.4719 135.986 84.8776V83.3517H135.276C134.117 83.3517 133.538 83.7848 133.538 84.651C133.538 85.0036 133.624 85.2805 133.795 85.482C133.976 85.6734 134.233 85.769 134.566 85.769ZM144.369 78.8343C144.611 78.8343 144.878 78.8746 145.17 78.9552L144.807 81.025C144.525 80.9545 144.289 80.9193 144.097 80.9193C143.624 80.9193 143.256 81.0855 142.994 81.4178C142.732 81.7502 142.526 82.2538 142.375 82.9287V87.0684H140.229V79.0609H142.088L142.284 80.6171C142.476 80.053 142.753 79.6149 143.115 79.3027C143.488 78.9904 143.906 78.8343 144.369 78.8343ZM152.712 75.8731V87.0684H150.823L150.702 86.0863C150.138 86.9022 149.373 87.3101 148.406 87.3101C147.419 87.3101 146.663 86.9324 146.14 86.177C145.626 85.4115 145.369 84.374 145.369 83.0646C145.369 82.2387 145.5 81.5085 145.762 80.8739C146.034 80.2293 146.417 79.7257 146.91 79.3631C147.404 79.0005 147.973 78.8192 148.617 78.8192C149.363 78.8192 150.012 79.0861 150.566 79.6199V75.6313L152.712 75.8731ZM149.04 85.7086C149.353 85.7086 149.63 85.6331 149.871 85.482C150.113 85.3208 150.345 85.0741 150.566 84.7417V81.161C150.355 80.9092 150.138 80.7229 149.917 80.602C149.705 80.471 149.458 80.4056 149.176 80.4056C148.683 80.4056 148.295 80.6221 148.013 81.0552C147.741 81.4883 147.605 82.1581 147.605 83.0646C147.605 84.0215 147.726 84.7014 147.968 85.1043C148.22 85.5072 148.577 85.7086 149.04 85.7086Z" fill="#1A1C1E"/>
<path d="M16.5068 112.728L828.581 112.727" stroke="#EAF0F7" stroke-width="0.944272"/>
<path d="M98.0503 241.146H586.663" stroke="#E6ECF2" stroke-width="0.944272" stroke-dasharray="3.78 3.78"/>
<path d="M98.0503 286.473H586.663" stroke="#E6ECF2" stroke-width="0.944272" stroke-dasharray="3.78 3.78"/>
<path d="M98.0503 331.797H586.663" stroke="#E6ECF2" stroke-width="0.944272" stroke-dasharray="3.78 3.78"/>
<path d="M98.0503 195.822H586.663" stroke="#E6ECF2" stroke-width="0.944272" stroke-dasharray="3.78 3.78"/>
<path d="M98.0503 150.497H586.663" stroke="#E6ECF2" stroke-width="0.944272" stroke-dasharray="3.78 3.78"/>
<path d="M137.522 243.92L98.4932 294.813V332.703H586.352V239.679L544.623 197.229L498.538 154.858L446.499 222.715H394.461L355.432 273.608H329.413L257.861 180.305H238.346L189.56 243.92H137.522Z" fill="url(#paint1_linear_2087_10498)"/>
<path d="M98.4932 294.802L135.254 246.87C136.684 245.006 138.899 243.913 141.248 243.913H185.834C188.183 243.913 190.398 242.821 191.828 240.957L236.078 183.26C237.508 181.396 239.723 180.303 242.073 180.303H254.134C256.483 180.303 258.699 181.396 260.128 183.26L327.145 270.642C328.575 272.506 330.79 273.598 333.14 273.598H351.706C354.055 273.598 356.271 272.506 357.7 270.642L392.193 225.667C393.623 223.803 395.838 222.71 398.188 222.71H442.773C445.122 222.71 447.338 221.617 448.767 219.753L493.521 161.4C496.218 157.883 501.349 157.433 504.617 160.426L544.623 197.064L586.352 239.673" stroke="#079EA6" stroke-width="1.41641" stroke-linecap="round"/>
<circle cx="138.338" cy="244.267" r="2.91549" fill="#079EA6"/>
<circle cx="138.338" cy="244.267" r="3.85976" stroke="#1CA9B0" stroke-opacity="0.25" stroke-width="1.88854"/>
<circle cx="216.57" cy="208.795" r="3.40141" fill="#079EA6"/>
<circle cx="216.57" cy="208.795" r="4.34568" stroke="#1CA9B0" stroke-opacity="0.25" stroke-width="1.88854"/>
<circle cx="301.606" cy="235.953" r="2.91549" fill="#079EA6"/>
<circle cx="301.606" cy="235.953" r="3.85976" stroke="#1CA9B0" stroke-opacity="0.25" stroke-width="1.88854"/>
<circle cx="383.725" cy="235.467" r="2.42958" fill="#079EA6"/>
<circle cx="383.725" cy="235.467" r="3.37385" stroke="#1CA9B0" stroke-opacity="0.25" stroke-width="1.88854"/>
<rect opacity="0.5" x="41.6904" y="142.954" width="42.3083" height="12.0881" rx="6.04405" fill="#DCEAEC"/>
<rect opacity="0.5" x="41.6904" y="187.277" width="42.3083" height="12.0881" rx="6.04405" fill="#DCEAEC"/>
<rect opacity="0.5" x="41.6904" y="231.601" width="42.3083" height="12.0881" rx="6.04405" fill="#DCEAEC"/>
<rect opacity="0.5" x="41.6904" y="275.923" width="42.3083" height="12.0881" rx="6.04405" fill="#DCEAEC"/>
<rect opacity="0.5" x="41.6904" y="320.246" width="42.3083" height="12.0881" rx="6.04405" fill="#DCEAEC"/>
<rect opacity="0.5" x="132.351" y="354.496" width="27.1982" height="14.1028" rx="7.05139" transform="rotate(90 132.351 354.496)" fill="#DCEAEC"/>
<rect opacity="0.5" x="178.689" y="354.496" width="27.1982" height="14.1028" rx="7.05139" transform="rotate(90 178.689 354.496)" fill="#DCEAEC"/>
<rect opacity="0.5" x="225.027" y="354.496" width="27.1982" height="14.1028" rx="7.05139" transform="rotate(90 225.027 354.496)" fill="#DCEAEC"/>
<rect opacity="0.5" x="271.364" y="354.496" width="27.1982" height="14.1028" rx="7.05139" transform="rotate(90 271.364 354.496)" fill="#DCEAEC"/>
<rect opacity="0.5" x="317.702" y="354.496" width="27.1982" height="14.1028" rx="7.05139" transform="rotate(90 317.702 354.496)" fill="#DCEAEC"/>
<rect opacity="0.5" x="364.04" y="354.496" width="27.1982" height="14.1028" rx="7.05139" transform="rotate(90 364.04 354.496)" fill="#DCEAEC"/>
</g>
<path opacity="0.6" d="M425.488 75.463C425.488 71.0123 429.096 67.4043 433.547 67.4043H602.78C607.231 67.4043 610.839 71.0123 610.839 75.463V87.5511C610.839 92.0018 607.231 95.6099 602.78 95.6099H433.547C429.096 95.6099 425.488 92.0018 425.488 87.5511V75.463Z" fill="#F0F9FA"/>
<path d="M12.478 24.0881C12.478 17.412 17.8901 12 24.5661 12H620.912C627.588 12 633 17.412 633 24.0881V52.2937H12.478V24.0881Z" fill="#F9FBFC"/>
<circle cx="566.916" cy="32.408" r="4.85916" fill="#90DBE2"/>
<circle cx="586.352" cy="32.408" r="4.85916" fill="#90DBE2"/>
<circle cx="605.789" cy="32.408" r="4.85916" fill="#90DBE2"/>
<rect opacity="0.6" x="41.6904" y="26.1025" width="88.6461" height="12.0881" rx="6.04405" fill="#D4E6E9"/>
<defs>
<linearGradient id="paint0_linear_2087_10498" x1="322.5" y1="12" x2="322.5" y2="426" gradientUnits="userSpaceOnUse">
<stop stop-color="#6BCBD3"/>
<stop offset="1" stop-color="#BDDCE0" stop-opacity="0"/>
</linearGradient>
<linearGradient id="paint1_linear_2087_10498" x1="342.423" y1="159.876" x2="342.423" y2="332.703" gradientUnits="userSpaceOnUse">
<stop stop-color="#29B5CC" stop-opacity="0.1"/>
<stop offset="1" stop-color="#EDF3FA" stop-opacity="0"/>
</linearGradient>
<clipPath id="clip0_2087_10498">
<rect width="613.471" height="339.474" fill="white" transform="translate(16.5068 52.2939)"/>
</clipPath>
</defs>
</svg>
